<?xml version="1.0" encoding="utf-8"?>
<!-- Generator: Adobe Illustrator 26.0.1, SVG Export Plug-In . SVG Version: 6.00 Build 0)  -->
<svg version="1.1" id="Layer_1" xmlns="http://www.w3.org/2000/svg" xmlns:xlink="http://www.w3.org/1999/xlink" x="0px" y="0px"
	 viewBox="0 0 841.89 237.17" style="enable-background:new 0 0 841.89 237.17;" xml:space="preserve">
<style type="text/css">
	.st0{fill:#3A3025;}
	.st1{fill:#BC9866;}
	.st2{fill:#DBBA93;}
</style>
<g>
	<g>
		<g>
			<path class="st0" d="M274.81,71.09h14.92c-2.18,4.69-2.43,6.12-2.43,11.82v34.86c0,6.37,0.34,7.12,2.43,11.9h-14.92
				c2.1-4.61,2.43-5.19,2.43-11.9V82.9C277.24,78.04,276.99,74.19,274.81,71.09z"/>
			<path class="st0" d="M297.35,115.25c1.93,2.01,9.97,8.97,18.6,8.97c7.29,0,11.48-4.78,11.48-9.39c0-5.03-4.02-7.37-9.05-9.22
				l-4.44-1.68c-7.96-2.93-15.42-7.04-15.42-17.09c0-9.55,7.71-17.68,21.03-17.68c6.7,0,11.56,1.68,14.75,2.77v11.31
				c-3.6-3.18-7.12-6.87-14.24-6.87c-6.2,0-10.14,3.69-10.14,8.13c0,5.86,4.11,7.29,9.89,9.55l5.87,2.35
				c4.94,1.93,12.9,4.61,12.9,15.5c0,10.89-8.63,19.69-21.79,19.69c-7.54,0-15.42-2.51-17.26-3.6L297.35,115.25z"/>
			<path class="st0" d="M346.19,71.09h15.08c-1.93,4.36-2.18,6.37-2.18,13.99v37.37h5.45c10.31,0,12.57-0.34,20.53-3.77l-3.77,10.98
				h-34.94c1.93-4.19,2.35-5.7,2.35-12.23V85.08C348.71,77.37,348.29,75.36,346.19,71.09z"/>
			<path class="st0" d="M395.71,114.83l19.27-43.74h2.93l23.21,49.27c1.84,4.02,3.94,6.62,6.37,9.3h-16.93
				c0.75-1.26,1.17-2.6,1.17-4.27c0-1.59-1.01-4.19-2.01-6.53l-3.85-8.46h-21.37l-3.77,8.13c-1.76,4.02-2.68,5.86-2.68,7.29
				c0,1.26,0.34,2.6,0.92,3.85h-11.65C389.51,127.4,391.35,124.88,395.71,114.83z M415.4,86.09l-8.05,17.85h15.67L415.4,86.09z"/>
			<path class="st0" d="M450.59,129.66c1.93-2.85,2.51-5.19,3.1-9.8l5.53-38.8c0.17-1.59,0.59-3.1,0.59-4.36
				c0-2.77-0.84-4.02-1.59-5.61h15.92c0,2.6,0.5,4.69,1.84,8.13l12.99,31.68l13.15-31.34c1.68-4.11,2.01-5.86,2.51-8.46h15.59
				c-0.92,1.01-1.76,2.85-1.76,4.86c0,1.93,0.17,3.77,0.42,5.61l4.94,38.29c0.5,4.36,1.59,6.37,2.93,9.8h-14.91
				c1.01-2.26,1.84-4.69,1.84-7.21c0-1.17-0.17-2.26-0.25-3.52l-4.69-38.04l-20.61,48.77h-2.01l-19.94-48.1l-5.36,36.2
				c-0.25,2.01-0.5,3.86-0.5,5.61c0,2.18,0.59,4.27,1.59,6.28H450.59z"/>
			<path class="st0" d="M581.13,71.59v11.48c-1.59-1.84-7.62-6.95-16.93-6.95c-14.91,0-21.95,10.98-21.95,24.05
				c0,13.41,7.29,24.8,23.13,24.8c7.88,0,13.24-3.52,17.01-6.12l-2.68,10.89c-4.53,1.01-9.55,1.84-14.16,1.84
				c-22.79,0-34.69-13.99-34.69-31.26c0-18.02,13.99-31.17,34.36-31.17C570.58,69.16,576.19,69.83,581.13,71.59z"/>
			<path class="st0" d="M589.84,71.09h15.08c-1.93,4.36-2.18,6.37-2.18,13.99v37.37h5.45c10.31,0,12.57-0.34,20.53-3.77l-3.77,10.98
				h-34.94c1.93-4.19,2.35-5.7,2.35-12.23V85.08C592.36,77.37,591.94,75.36,589.84,71.09z"/>
			<path class="st0" d="M634.42,71.09h14.91c-2.18,4.69-2.43,6.12-2.43,11.82v34.86c0,6.37,0.34,7.12,2.43,11.9h-14.91
				c2.1-4.61,2.43-5.19,2.43-11.9V82.9C636.85,78.04,636.59,74.19,634.42,71.09z"/>
			<path class="st0" d="M707.9,71.59v11.48c-1.59-1.84-7.62-6.95-16.93-6.95c-14.91,0-21.95,10.98-21.95,24.05
				c0,13.41,7.29,24.8,23.13,24.8c7.88,0,13.24-3.52,17.01-6.12l-2.68,10.89c-4.53,1.01-9.55,1.84-14.16,1.84
				c-22.79,0-34.69-13.99-34.69-31.26c0-18.02,13.99-31.17,34.36-31.17C697.34,69.16,702.96,69.83,707.9,71.59z"/>
			<path class="st0" d="M717.11,71.09h14.5c-1.51,2.6-2.18,3.86-2.18,10.64v16.26l16.68-19.27c2.43-2.85,2.85-3.6,2.85-5.78
				c0-0.59-0.09-1.26-0.09-1.84h15.59c-4.94,3.94-5.03,3.94-8.88,8.21l-15.92,17.68l15.25,19.61c7.87,10.31,10.14,11.56,12.23,13.07
				h-7.46c-5.2,0-7.04,0-10.81-4.94l-19.44-24.89v17.6c0,5.78,0.5,8.13,3.1,12.23h-15.59c2.35-3.94,2.51-5.7,2.51-11.81v-36.2
				C719.46,76.2,718.7,73.6,717.11,71.09z"/>
		</g>
		<g>
			<path class="st0" d="M280.99,167.79v-15.17h-5.94v-2.14h14.32v2.14h-5.94v15.17H280.99z"/>
			<path class="st0" d="M297.47,167.79v-17.31h2.47v7.72h9.92v-7.72h2.47v17.31h-2.47v-7.75h-9.92v7.75H297.47z"/>
			<path class="st0" d="M322.27,167.79v-17.31h12.23v2.14h-9.75v5.58h9.07v1.84h-9.07v5.61h10.08v2.14H322.27z"/>
			<path class="st0" d="M358.06,150.48v17.31h-2.42v-17.31H358.06z"/>
			<path class="st0" d="M378.91,155.4c-0.05-1.92-2.5-3.02-4.86-3.08c-2.39-0.05-4.73,0.93-4.42,3.19
				c0.49,3.79,11.54,1.21,11.73,7.83c0.08,3.54-3.13,4.67-6.79,4.67c-6.43,0-7.31-3.68-7.39-5.52h2.23
				c0.19,2.36,2.56,3.41,4.92,3.46c2.45,0.06,4.89-0.3,4.73-2.72c-0.28-4.12-11.38-1.7-11.71-7.58c-0.22-4.01,2.75-5.44,6.87-5.44
				c6.48,0,6.92,4.37,6.92,5.19H378.91z"/>
			<path class="st0" d="M390.22,167.79v-17.31h2.47v15.17h9.37v2.14H390.22z"/>
			<path class="st0" d="M420.66,163.28h-8.05l-1.48,4.51h-2.53l5.91-17.31h4.59l5.69,17.31h-2.64L420.66,163.28z M420.19,161.86
				l-3.35-10.17h-0.39l-3.35,10.17H420.19z"/>
			<path class="st0" d="M433.18,150.48h3.85l5.39,12.39l5.94-12.39h3.24v17.31h-2.36v-12.78l0.22-2.39l-5.63,12.09h-2.8l-5.74-12.97
				l0.28,3.27v12.78h-2.36V150.48z"/>
			<path class="st0" d="M463.88,150.48v17.31h-2.42v-17.31H463.88z"/>
			<path class="st0" d="M487.87,162.71l2.66,0.03c-1.04,3.6-5.19,5.25-8.63,5.25c-5.14,0-9.23-2.77-9.23-8.85
				c0-6.35,4.09-8.85,9.23-8.85c4.15,0,8.24,2.03,8.85,6.04h-2.56c-0.93-2.8-3.33-3.85-6.29-3.85c-3.85,0-6.76,1.7-6.76,6.65
				c0,4.67,2.91,6.65,6.76,6.65C484.4,165.78,486.71,164.96,487.87,162.71z"/>
			<path class="st0" d="M511.73,167.79v-17.31h12.23v2.14h-9.75v5.58h9.07v1.84h-9.07v5.61h10.08v2.14H511.73z"/>
			<path class="st0" d="M547.88,167.79h-3.85l-8.57-15.53v15.53h-2.47v-17.31h3.9l8.52,15.33v-15.33h2.47V167.79z"/>
			<path class="st0" d="M571.86,162.71l2.67,0.03c-1.05,3.6-5.19,5.25-8.63,5.25c-5.14,0-9.23-2.77-9.23-8.85
				c0-6.35,4.1-8.85,9.23-8.85c4.15,0,8.24,2.03,8.85,6.04h-2.56c-0.93-2.8-3.33-3.85-6.29-3.85c-3.85,0-6.76,1.7-6.76,6.65
				c0,4.67,2.91,6.65,6.76,6.65C568.4,165.78,570.7,164.96,571.86,162.71z"/>
			<path class="st0" d="M588.22,167.79v-6.02l-6.73-11.29h2.5l5.41,9.1l5.69-9.1h2.45l-6.87,11.29v6.02H588.22z"/>
			<path class="st0" d="M618.96,162.71l2.67,0.03c-1.05,3.6-5.19,5.25-8.63,5.25c-5.14,0-9.23-2.77-9.23-8.85
				c0-6.35,4.1-8.85,9.23-8.85c4.15,0,8.24,2.03,8.85,6.04h-2.56c-0.93-2.8-3.33-3.85-6.29-3.85c-3.85,0-6.76,1.7-6.76,6.65
				c0,4.67,2.91,6.65,6.76,6.65C615.5,165.78,617.81,164.96,618.96,162.71z"/>
			<path class="st0" d="M630.66,167.79v-17.31h2.47v15.17h9.37v2.14H630.66z"/>
			<path class="st0" d="M658.29,150.29c5.14,0,9.18,2.5,9.18,8.85c0,6.07-4.04,8.85-9.18,8.85c-5.11,0-9.23-2.77-9.23-8.85
				C649.06,152.79,653.18,150.29,658.29,150.29z M665,159.14c0-4.92-2.89-6.65-6.7-6.65c-3.85,0-6.76,1.7-6.76,6.65
				c0,4.67,2.91,6.65,6.76,6.65C662.11,165.78,665,163.78,665,159.14z"/>
			<path class="st0" d="M675.95,167.79v-17.31h7.78c3.49,0,6.18,1.26,6.18,5.28c0,3.76-2.89,5.3-6.18,5.3h-5.3v6.73H675.95z
				 M678.42,159.46h5.25c2.2,0,3.77-0.88,3.77-3.68c0-2.75-1.76-3.16-3.77-3.16h-5.25V159.46z"/>
			<path class="st0" d="M698.28,167.79v-17.31h12.23v2.14h-9.75v5.58h9.07v1.84h-9.07v5.61h10.08v2.14H698.28z"/>
			<path class="st0" d="M719.54,167.79v-17.31h7.83c5.22,0,8.79,3.19,8.79,8.66c0,5.47-3.57,8.66-8.79,8.66H719.54z M722.01,165.65
				h5.22c3.96,0,6.46-2.36,6.46-6.51c0-4.15-2.5-6.51-6.46-6.51h-5.22V165.65z"/>
			<path class="st0" d="M747.09,150.48v17.31h-2.42v-17.31H747.09z"/>
			<path class="st0" d="M767.14,163.28h-8.05l-1.49,4.51h-2.53l5.91-17.31h4.59l5.69,17.31h-2.64L767.14,163.28z M766.67,161.86
				l-3.35-10.17h-0.38l-3.35,10.17H766.67z"/>
		</g>
	</g>
	<g>
		<g>
			<path class="st1" d="M136.63,188.64c-2.16,0-4.3-0.64-6.16-1.9l-55.06-37.5c-3-2.04-4.78-5.42-4.78-9.04v-35.68
				c0-2.46,2-4.46,4.46-4.46c2.46,0,4.46,2,4.46,4.46v35.68c0,0.67,0.33,1.29,0.88,1.67l55.06,37.5c0.87,0.6,1.68,0.33,2.08,0.12
				c0.4-0.21,1.08-0.73,1.08-1.79v-70.05c0-0.7-0.37-1.36-0.97-1.73L79.55,70.53c-2.1-1.28-2.77-4.02-1.49-6.13
				c1.28-2.1,4.02-2.77,6.13-1.49l58.14,35.38c3.24,1.97,5.25,5.55,5.25,9.35v70.05c0,4.06-2.23,7.77-5.83,9.67
				C140.14,188.22,138.38,188.64,136.63,188.64z"/>
		</g>
		<g>
			<path class="st1" d="M164.25,188.64c-1.75,0-3.51-0.42-5.12-1.27c-3.6-1.9-5.83-5.61-5.83-9.67v-70.05
				c0-3.79,2.01-7.38,5.25-9.35l58.14-35.38c2.1-1.28,4.84-0.61,6.13,1.49c1.28,2.1,0.61,4.85-1.49,6.13l-58.14,35.38
				c-0.6,0.36-0.97,1.03-0.97,1.73v70.05c0,1.06,0.68,1.58,1.08,1.79c0.4,0.21,1.21,0.48,2.08-0.12l55.07-37.5
				c0.55-0.38,0.88-1,0.88-1.67v-35.68c0-2.46,2-4.46,4.46-4.46c2.46,0,4.46,2,4.46,4.46v35.68c0,3.62-1.79,7-4.78,9.04l-55.07,37.5
				C168.55,188,166.4,188.64,164.25,188.64z"/>
		</g>
		<g>
			<path class="st2" d="M150.44,91.78c-2.08,0-4.16-0.58-5.97-1.76L92.87,56.73c-2.07-1.33-2.66-4.1-1.33-6.17
				c1.33-2.07,4.09-2.67,6.16-1.33l51.6,33.29c0.69,0.45,1.58,0.45,2.27,0l51.6-33.29c2.07-1.33,4.83-0.74,6.17,1.33
				c1.33,2.07,0.74,4.83-1.33,6.17l-51.6,33.29C154.6,91.19,152.52,91.78,150.44,91.78z"/>
		</g>
	</g>
</g>
</svg>
