<?xml version="1.0" encoding="utf-8"?>
<!-- Generator: Adobe Illustrator 26.0.1, SVG Export Plug-In . SVG Version: 6.00 Build 0)  -->
<svg version="1.1" id="Layer_1" xmlns="http://www.w3.org/2000/svg" xmlns:xlink="http://www.w3.org/1999/xlink" x="0px" y="0px"
	 viewBox="0 0 238.84 237.17" style="enable-background:new 0 0 238.84 237.17;" xml:space="preserve">
<style type="text/css">
	.st0{fill:#3A3025;}
	.st1{fill:#BC9866;}
	.st2{fill:#DBBA93;}
</style>
<g>
	<path class="st0" d="M119.42,234.16L119.42,234.16c-63.83,0-115.58-51.75-115.58-115.58v0C3.84,54.75,55.59,3.01,119.42,3.01h0
		C183.25,3.01,235,54.75,235,118.59v0C235,182.42,183.25,234.16,119.42,234.16z"/>
	<g>
		<g>
			<g>
				<path class="st1" d="M107.24,180.36c-1.9,0-3.79-0.56-5.43-1.68l-48.56-33.07c-2.64-1.8-4.22-4.78-4.22-7.97v-31.46
					c0-2.17,1.76-3.93,3.93-3.93s3.93,1.76,3.93,3.93v31.46c0,0.59,0.29,1.14,0.78,1.48l48.56,33.07c0.77,0.53,1.48,0.29,1.84,0.1
					c0.35-0.19,0.95-0.64,0.95-1.58v-61.77c0-0.62-0.33-1.2-0.86-1.52l-51.27-31.2c-1.86-1.13-2.44-3.55-1.31-5.4
					c1.13-1.85,3.55-2.44,5.4-1.31l51.26,31.2c2.86,1.74,4.63,4.9,4.63,8.24v61.77c0,3.58-1.97,6.85-5.14,8.53
					C110.34,179.99,108.79,180.36,107.24,180.36z"/>
			</g>
			<g>
				<path class="st1" d="M131.6,180.36c-1.54,0-3.09-0.37-4.51-1.12c-3.17-1.68-5.14-4.94-5.14-8.53v-61.77
					c0-3.35,1.78-6.5,4.63-8.24l51.26-31.2c1.86-1.13,4.27-0.54,5.4,1.31c1.13,1.86,0.54,4.27-1.31,5.4l-51.27,31.2
					c-0.53,0.32-0.86,0.91-0.86,1.52v61.77c0,0.93,0.6,1.39,0.95,1.58s1.07,0.42,1.84-0.1l48.56-33.07
					c0.49-0.33,0.78-0.88,0.78-1.47v-31.46c0-2.17,1.76-3.93,3.93-3.93c2.17,0,3.93,1.76,3.93,3.93v31.46
					c0,3.19-1.58,6.17-4.21,7.97l-48.56,33.07C135.39,179.8,133.5,180.36,131.6,180.36z"/>
			</g>
			<g>
				<path class="st2" d="M119.42,94.94c-1.83,0-3.67-0.52-5.27-1.55l-45.5-29.35c-1.82-1.18-2.35-3.61-1.17-5.44
					c1.18-1.82,3.61-2.35,5.43-1.17l45.5,29.35c0.61,0.4,1.39,0.39,2,0l45.5-29.35c1.83-1.18,4.26-0.65,5.44,1.17
					c1.18,1.83,0.65,4.26-1.17,5.44l-45.5,29.35C123.09,94.43,121.25,94.94,119.42,94.94z"/>
			</g>
		</g>
	</g>
</g>
</svg>
